<mxfile host="app.diagrams.net" modified="2023-04-16T14:25:13.642Z" agent="Mozilla/5.0 (Windows NT 10.0; Win64; x64) AppleWebKit/537.36 (KHTML, like Gecko) Chrome/111.0.0.0 Safari/537.36" etag="0tcaZfqrff_Ysx1IOkWw" version="21.1.8" type="github">
  <diagram name="Strona-1" id="ovQBvIDhcogMFg_1nrE-">
    <mxGraphModel dx="2261" dy="766" grid="1" gridSize="10" guides="1" tooltips="1" connect="1" arrows="1" fold="1" page="1" pageScale="1" pageWidth="827" pageHeight="1169" math="0" shadow="0">
      <root>
        <mxCell id="0" />
        <mxCell id="1" parent="0" />
        <mxCell id="dLV565RacFSaDqKtVf_R-2" value="START" style="strokeWidth=2;html=1;shape=mxgraph.flowchart.start_1;whiteSpace=wrap;" parent="1" vertex="1">
          <mxGeometry x="350" y="20" width="100" height="60" as="geometry" />
        </mxCell>
        <mxCell id="dLV565RacFSaDqKtVf_R-7" value="" style="endArrow=none;html=1;rounded=0;" parent="1" edge="1">
          <mxGeometry width="50" height="50" relative="1" as="geometry">
            <mxPoint x="400" y="120" as="sourcePoint" />
            <mxPoint x="400" y="80" as="targetPoint" />
          </mxGeometry>
        </mxCell>
        <mxCell id="dLV565RacFSaDqKtVf_R-8" value="A, B, C" style="shape=parallelogram;html=1;strokeWidth=2;perimeter=parallelogramPerimeter;whiteSpace=wrap;rounded=1;arcSize=12;size=0.23;" parent="1" vertex="1">
          <mxGeometry x="305" y="120" width="190" height="60" as="geometry" />
        </mxCell>
        <mxCell id="dLV565RacFSaDqKtVf_R-10" value="" style="endArrow=none;html=1;rounded=0;" parent="1" edge="1">
          <mxGeometry width="50" height="50" relative="1" as="geometry">
            <mxPoint x="400" y="240" as="sourcePoint" />
            <mxPoint x="399.5" y="180" as="targetPoint" />
          </mxGeometry>
        </mxCell>
        <mxCell id="dLV565RacFSaDqKtVf_R-11" value="" style="verticalLabelPosition=bottom;verticalAlign=top;html=1;shape=hexagon;perimeter=hexagonPerimeter2;arcSize=6;size=0.27;fillColor=default;" parent="1" vertex="1">
          <mxGeometry x="295" y="240" width="210" height="60" as="geometry" />
        </mxCell>
        <mxCell id="dLV565RacFSaDqKtVf_R-12" value="A=0" style="text;html=1;strokeColor=none;fillColor=none;align=center;verticalAlign=middle;whiteSpace=wrap;rounded=0;" parent="1" vertex="1">
          <mxGeometry x="370" y="255" width="60" height="30" as="geometry" />
        </mxCell>
        <mxCell id="dLV565RacFSaDqKtVf_R-13" value="" style="strokeWidth=2;html=1;shape=mxgraph.flowchart.annotation_1;align=left;pointerEvents=1;" parent="1" vertex="1">
          <mxGeometry x="245" y="140" width="50" height="130" as="geometry" />
        </mxCell>
        <mxCell id="dLV565RacFSaDqKtVf_R-14" value="" style="endArrow=none;html=1;rounded=0;entryX=0;entryY=0.25;entryDx=0;entryDy=0;" parent="1" target="dLV565RacFSaDqKtVf_R-8" edge="1">
          <mxGeometry width="50" height="50" relative="1" as="geometry">
            <mxPoint x="295" y="140" as="sourcePoint" />
            <mxPoint x="345" y="90" as="targetPoint" />
          </mxGeometry>
        </mxCell>
        <mxCell id="dLV565RacFSaDqKtVf_R-15" value="" style="endArrow=none;html=1;rounded=0;" parent="1" edge="1">
          <mxGeometry width="50" height="50" relative="1" as="geometry">
            <mxPoint x="505" y="270" as="sourcePoint" />
            <mxPoint x="570" y="270" as="targetPoint" />
          </mxGeometry>
        </mxCell>
        <mxCell id="dLV565RacFSaDqKtVf_R-16" value="" style="endArrow=none;html=1;rounded=0;" parent="1" edge="1">
          <mxGeometry width="50" height="50" relative="1" as="geometry">
            <mxPoint x="570" y="400" as="sourcePoint" />
            <mxPoint x="570" y="270" as="targetPoint" />
          </mxGeometry>
        </mxCell>
        <mxCell id="dLV565RacFSaDqKtVf_R-26" value="" style="edgeStyle=orthogonalEdgeStyle;rounded=0;orthogonalLoop=1;jettySize=auto;html=1;" parent="1" source="dLV565RacFSaDqKtVf_R-17" target="dLV565RacFSaDqKtVf_R-25" edge="1">
          <mxGeometry relative="1" as="geometry" />
        </mxCell>
        <mxCell id="dLV565RacFSaDqKtVf_R-17" value="delta=B^2-4AC" style="rounded=1;whiteSpace=wrap;html=1;absoluteArcSize=1;arcSize=14;strokeWidth=2;" parent="1" vertex="1">
          <mxGeometry x="450" y="390" width="180" height="50" as="geometry" />
        </mxCell>
        <mxCell id="dLV565RacFSaDqKtVf_R-30" value="" style="edgeStyle=orthogonalEdgeStyle;rounded=0;orthogonalLoop=1;jettySize=auto;html=1;" parent="1" source="dLV565RacFSaDqKtVf_R-25" target="dLV565RacFSaDqKtVf_R-29" edge="1">
          <mxGeometry relative="1" as="geometry" />
        </mxCell>
        <mxCell id="dLV565RacFSaDqKtVf_R-32" value="" style="edgeStyle=orthogonalEdgeStyle;rounded=0;orthogonalLoop=1;jettySize=auto;html=1;" parent="1" source="dLV565RacFSaDqKtVf_R-25" target="dLV565RacFSaDqKtVf_R-31" edge="1">
          <mxGeometry relative="1" as="geometry" />
        </mxCell>
        <mxCell id="dLV565RacFSaDqKtVf_R-25" value="delta&amp;gt;0" style="rhombus;whiteSpace=wrap;html=1;rounded=1;arcSize=14;strokeWidth=2;" parent="1" vertex="1">
          <mxGeometry x="274" y="470" width="280" height="80" as="geometry" />
        </mxCell>
        <mxCell id="CRG1bnRTWW_uM6VABhP1-7" value="" style="edgeStyle=orthogonalEdgeStyle;rounded=0;orthogonalLoop=1;jettySize=auto;html=1;" edge="1" parent="1" source="dLV565RacFSaDqKtVf_R-29" target="CRG1bnRTWW_uM6VABhP1-6">
          <mxGeometry relative="1" as="geometry" />
        </mxCell>
        <mxCell id="dLV565RacFSaDqKtVf_R-29" value="brak miejsc zerowych" style="shape=parallelogram;perimeter=parallelogramPerimeter;whiteSpace=wrap;html=1;fixedSize=1;rounded=1;arcSize=14;strokeWidth=2;" parent="1" vertex="1">
          <mxGeometry x="-10" y="560" width="200" height="60" as="geometry" />
        </mxCell>
        <mxCell id="dLV565RacFSaDqKtVf_R-34" value="" style="edgeStyle=orthogonalEdgeStyle;rounded=0;orthogonalLoop=1;jettySize=auto;html=1;" parent="1" source="dLV565RacFSaDqKtVf_R-31" target="dLV565RacFSaDqKtVf_R-33" edge="1">
          <mxGeometry relative="1" as="geometry" />
        </mxCell>
        <mxCell id="dLV565RacFSaDqKtVf_R-36" value="" style="edgeStyle=orthogonalEdgeStyle;rounded=0;orthogonalLoop=1;jettySize=auto;html=1;" parent="1" source="dLV565RacFSaDqKtVf_R-31" target="dLV565RacFSaDqKtVf_R-35" edge="1">
          <mxGeometry relative="1" as="geometry" />
        </mxCell>
        <mxCell id="dLV565RacFSaDqKtVf_R-31" value="d=0" style="rhombus;whiteSpace=wrap;html=1;rounded=1;arcSize=14;strokeWidth=2;" parent="1" vertex="1">
          <mxGeometry x="580" y="640" width="80" height="80" as="geometry" />
        </mxCell>
        <mxCell id="CRG1bnRTWW_uM6VABhP1-4" value="" style="edgeStyle=orthogonalEdgeStyle;rounded=0;orthogonalLoop=1;jettySize=auto;html=1;" edge="1" parent="1" source="dLV565RacFSaDqKtVf_R-33" target="CRG1bnRTWW_uM6VABhP1-3">
          <mxGeometry relative="1" as="geometry" />
        </mxCell>
        <mxCell id="dLV565RacFSaDqKtVf_R-33" value="x1=(-B+src(delta))/A&lt;br&gt;x2=(-B-src(delta))/A" style="rounded=1;whiteSpace=wrap;html=1;arcSize=14;strokeWidth=2;" parent="1" vertex="1">
          <mxGeometry x="274" y="830" width="120" height="100" as="geometry" />
        </mxCell>
        <mxCell id="CRG1bnRTWW_uM6VABhP1-2" value="" style="edgeStyle=orthogonalEdgeStyle;rounded=0;orthogonalLoop=1;jettySize=auto;html=1;" edge="1" parent="1" source="CRG1bnRTWW_uM6VABhP1-3" target="CRG1bnRTWW_uM6VABhP1-1">
          <mxGeometry relative="1" as="geometry" />
        </mxCell>
        <mxCell id="dLV565RacFSaDqKtVf_R-35" value="x1=-B/2A" style="whiteSpace=wrap;html=1;rounded=1;arcSize=14;strokeWidth=2;" parent="1" vertex="1">
          <mxGeometry x="790" y="840" width="150" height="110" as="geometry" />
        </mxCell>
        <mxCell id="CRG1bnRTWW_uM6VABhP1-1" value="stop" style="ellipse;whiteSpace=wrap;html=1;rounded=1;arcSize=14;strokeWidth=2;" vertex="1" parent="1">
          <mxGeometry x="570" y="1110" width="80" height="80" as="geometry" />
        </mxCell>
        <mxCell id="CRG1bnRTWW_uM6VABhP1-5" value="" style="edgeStyle=orthogonalEdgeStyle;rounded=0;orthogonalLoop=1;jettySize=auto;html=1;" edge="1" parent="1" source="dLV565RacFSaDqKtVf_R-35" target="CRG1bnRTWW_uM6VABhP1-3">
          <mxGeometry relative="1" as="geometry">
            <mxPoint x="790" y="895" as="sourcePoint" />
            <mxPoint x="610" y="1110" as="targetPoint" />
          </mxGeometry>
        </mxCell>
        <mxCell id="CRG1bnRTWW_uM6VABhP1-3" value="" style="shape=waypoint;sketch=0;size=6;pointerEvents=1;points=[];fillColor=default;resizable=0;rotatable=0;perimeter=centerPerimeter;snapToPoint=1;rounded=1;arcSize=14;strokeWidth=2;" vertex="1" parent="1">
          <mxGeometry x="600" y="990" width="20" height="20" as="geometry" />
        </mxCell>
        <mxCell id="CRG1bnRTWW_uM6VABhP1-9" value="" style="edgeStyle=orthogonalEdgeStyle;rounded=0;orthogonalLoop=1;jettySize=auto;html=1;" edge="1" parent="1" source="CRG1bnRTWW_uM6VABhP1-6" target="CRG1bnRTWW_uM6VABhP1-8">
          <mxGeometry relative="1" as="geometry" />
        </mxCell>
        <mxCell id="CRG1bnRTWW_uM6VABhP1-6" value="" style="shape=waypoint;sketch=0;size=6;pointerEvents=1;points=[];fillColor=default;resizable=0;rotatable=0;perimeter=centerPerimeter;snapToPoint=1;rounded=1;arcSize=14;strokeWidth=2;" vertex="1" parent="1">
          <mxGeometry x="80" y="990" width="20" height="20" as="geometry" />
        </mxCell>
        <mxCell id="CRG1bnRTWW_uM6VABhP1-8" value="" style="shape=waypoint;sketch=0;size=6;pointerEvents=1;points=[];fillColor=default;resizable=0;rotatable=0;perimeter=centerPerimeter;snapToPoint=1;rounded=1;arcSize=14;strokeWidth=2;" vertex="1" parent="1">
          <mxGeometry x="600" y="990" width="20" height="20" as="geometry" />
        </mxCell>
      </root>
    </mxGraphModel>
  </diagram>
</mxfile>
